# xmcd CD database file
#
# Track frame offsets:
#	150
#	15864
#	32921
#	49411
#	67803
#	84458
#	100653
#	115403
#	132285
#	149433
#	168086
#	184294
#	200243
#	223968
#	239729
#	255373
#
# Disc length: 3667 seconds
#
# Revision: 2
# Processed by: cddbd v1.4b41PL1 Copyright (c) Steve Scherf et al.
# Submitted via: Feurio! 1.60 - http://www.feurio.com
#
DISCID=e50e5110,e90e5110
DTITLE=Various Artist - Unbekannte CD #E90E51101F42A899
DYEAR=1900
DGENRE=
TTITLE0=Ayman - Dieser Brief
TTITLE1=Madonna - Music
TTITLE2=Modjo - Lady
TTITLE3=R Kelly - Bad Man
TTITLE4=Spiller - Groove Jet
TTITLE5=The Underdog Project - Summer Jam
TTITLE6=Anastica - Not that kind
TTITLE7=Black Ivory - Bring it all to me
TTITLE8=Whitney Houston/Enrique Iglesias - Could i have
TTITLE9=Sonique - Sky
TTITLE10=LL Cool J - Black that
TTITLE11=Destinys Child - Jumpin Jumpin
TTITLE12=Joe - I wanna know
TTITLE13=Christina Aquilera - Come on over Babay
TTITLE14=Ronan Keaton - The Life is a Rollerc....
TTITLE15=Robbie Williams/Kylie Minugue - Kids
EXTD=
EXTT0=
EXTT1=
EXTT2=
EXTT3=
EXTT4=
EXTT5=
EXTT6=
EXTT7=
EXTT8=
EXTT9=
EXTT10=
EXTT11=
EXTT12=
EXTT13=
EXTT14=
EXTT15=
PLAYORDER=
